<svg version="1.2" xmlns="http://www.w3.org/2000/svg" viewBox="0 0 733 733" width="733" height="733">
	<title>smile-svg</title>
	<style>
		.s0 { fill: #000000 } 
		.s1 { fill: #fede58 } 
		.s2 { fill: #871945 } 
		.s3 { fill: #ffffff } 
		.s4 { fill: #f9bedd } 
	</style>
	<path id="Layer" class="s0" d="m366.5 0c202.7 0 366.5 163.8 366.5 366.5 0 202.7-163.8 366.5-366.5 366.5-202.7 0-366.5-163.8-366.5-366.5 0-202.7 163.8-366.5 366.5-366.5z"/>
	<path id="Layer" class="s1" d="m366.5 30c186.1 0 336.5 150.4 336.5 336.5 0 186.1-150.4 336.5-336.5 336.5-186.1 0-336.5-150.4-336.5-336.5 0-186.1 150.4-336.5 336.5-336.5z"/>
	<path id="Layer" class="s0" d="m408 665c121-21 194-115 212-233v-8l25-1 1-18h-481c-6 13-10 27-13 41-13 94 38 146 114 193 45 23 93 29 142 26z"/>
	<path id="Layer" class="s2" d="m361 647c-52-6-98-28-138-62-28-25-46-56-51-87-4-20-1-57 5-70l423-1c2 56-39 118-74 157-31 34-72 54-116 63-11 2-38 2-49 0z"/>
	<path id="Layer" class="s0" d="m657 342c13-26 13-57 9-85-6-27-18-52-35-68-21-20-50-23-77-18-15 4-28 12-39 23-18 17-30 40-36 67-4 20-4 41 0 60l6 21z"/>
	<path id="Layer" class="s3" d="m499 323c-5-6-6-40-2-58 3-16 4-16 10-10 14 14 38 14 52 0 15-18 12-41-6-55-3-3-5-5-5-6 1-4 22-8 34-7 42 4 57.6 40 66.2 77 3 17 1 53-4 59z"/>
	<path id="Layer" class="s0" d="m355 343c2-3 6-20 7-29 5-28 1-57-11-83-15-30-41-52-72-60-29-7-57 0-82 15-26 17-45 49-50 82-2 12-2 33 0 45 1 10 5 26 8 30z"/>
	<path id="Layer" class="s3" d="m168 324c-4-5-5-34-4-50 2-14 6-24 8-24 1 0 3 2 6 5 17 17 47 13 58-9 7-16 4-31-8-43-4-4-7-8-7-9 0 0 4-2 8-3 51-17 105 20 115 80 3 15 0 43-3 53z"/>
	<path id="Layer" class="s4" d="m229 590c0 0 46 40 105 53 66 15 114-7 114-7 0 0-14-76-93-95-76-18-126 49-126 49z"/>
</svg>